<?xml version="1.0" encoding="UTF-8"?>
<!DOCTYPE svg PUBLIC "-//W3C//DTD SVG 1.1//EN" "http://www.w3.org/Graphics/SVG/1.1/DTD/svg11.dtd">
<!-- Creator: CorelDRAW X8 -->
<svg xmlns="http://www.w3.org/2000/svg" xml:space="preserve" width="1050px" height="600px" version="1.1" style="shape-rendering:geometricPrecision; text-rendering:geometricPrecision; image-rendering:optimizeQuality; fill-rule:evenodd; clip-rule:evenodd"
viewBox="0 0 1050 600"
 xmlns:xlink="http://www.w3.org/1999/xlink">
 <defs>
  <style type="text/css">
   <![CDATA[
    .fil0 {fill:#F0BA00}
    .fil1 {fill:#F0BA00}
    .fil2 {fill:#F8C300}
    .fil3 {fill:#FFCC00}
   ]]>
  </style>
    <mask id="id0">
  <linearGradient id="id1" gradientUnits="userSpaceOnUse" x1="430.529" y1="2.8523" x2="473.718" y2="0.160472">
   <stop offset="0" style="stop-opacity:1; stop-color:white"/>
   <stop offset="0.25098" style="stop-opacity:-123.486; stop-color:white"/>
   <stop offset="1" style="stop-opacity:0; stop-color:white"/>
  </linearGradient>
     <rect style="fill:url(#id1)" x="439" y="-22" width="28.4965" height="36.4098"/>
    </mask>
 </defs>
 <g id="Layer_x0020_1">
  <metadata id="CorelCorpID_0Corel-Layer"/>
  <g id="_2525859017648">
   <path class="fil0" d="M440 14l0 0 17 0 11 -21c0,-1 -2,1 -2,1 -2,1 -2,0 -2,0 0,3 -1,4 -4,6 1,6 -4,9 -9,7 9,0 10,-7 5,-8 3,-3 2,-4 3,-8 -4,2 -6,2 -7,5 -1,-4 -8,-4 -7,5 -2,-2 -2,-4 -1,-7 9,1 7,-10 -1,-5 1,-4 0,-9 -4,-11l0 0 0 0c-3,2 -4,8 -3,11 -8,-5 -10,6 -1,5 1,3 1,5 -1,7 1,-9 -6,-9 -7,-5 -1,-3 -3,-3 -7,-5 1,4 0,5 3,8 -5,1 -5,8 5,8 -5,2 -10,-1 -9,-7 -3,-2 -4,-3 -4,-6 0,0 0,1 -2,0 0,0 -2,-2 -2,-1l11 21 17 0 0 0 1 0z"/>
   <path class="fil1" d="M422 15l35 0 0 2 -35 0 0 -2zm17 2c0,0 0,-1 0,-1 0,0 0,0 0,0 1,0 1,0 1,0 0,0 0,1 -1,1zm3 0c0,0 0,-1 0,-1 0,0 0,0 0,0 1,0 1,0 1,0 0,0 0,1 -1,1zm-6 0c0,0 0,-1 0,-1 0,0 0,0 0,0 1,0 1,0 1,0 0,0 0,1 -1,1zm-2 0c-1,0 -1,-1 -1,-1 0,0 0,0 1,0 0,0 0,0 0,0 0,0 0,1 0,1zm11 0c0,0 0,-1 0,-1 0,0 0,0 0,0 1,0 1,0 1,0 0,0 0,1 -1,1zm3 0c0,0 0,-1 0,-1 0,0 0,0 0,0 0,0 1,0 1,0 0,0 -1,1 -1,1zm3 0c0,0 0,-1 0,-1 0,0 0,0 0,0 0,0 1,0 1,0 0,0 -1,1 -1,1zm3 0c0,0 0,-1 0,-1 0,0 0,0 0,0 0,0 1,0 1,0 0,0 -1,1 -1,1zm-23 0c-1,0 -1,-1 -1,-1 0,0 0,0 1,0 0,0 0,0 0,0 0,0 0,1 0,1zm-3 0c-1,0 -1,-1 -1,-1 0,0 0,0 1,0 0,0 0,0 0,0 0,0 0,1 0,1zm-3 0c0,0 -1,-1 -1,-1 0,0 1,0 1,0 0,0 0,0 0,0 0,0 0,1 0,1z"/>
   <circle class="fil2" cx="460" cy="-10" r="2"/>
   <circle class="fil1" cx="439" cy="-24" r="2"/>
   <rect class="fil1" x="421" y="17" width="36.1225" height="0.609894" rx="2" ry="1"/>
   <rect class="fil1" x="421" y="15" width="36.2141" height="0.609894" rx="2" ry="1"/>
   <circle class="fil1" cx="419" cy="-10" r="2"/>
   <path class="fil3" style="mask:url(#id0)" d="M445 1c-2,-2 -2,-4 -1,-7 9,1 6,-10 -1,-5 1,-4 0,-9 -4,-11l0 36 0 0 1 0 17 0 11 -21c0,-1 -2,1 -2,1 -2,1 -2,0 -2,0 -1,3 -1,4 -4,6 1,6 -4,9 -9,7 9,0 10,-7 5,-8 3,-3 2,-4 3,-8 -4,2 -6,2 -7,5 -1,-4 -8,-4 -7,5z"/>
  </g>
 </g>
</svg>
